<svg xmlns="http://www.w3.org/2000/svg" version="1.1" xmlns:xlink="http://www.w3.org/1999/xlink" xmlns:svgjs="http://svgjs.dev/svgjs" width="1000" height="656" viewBox="0 0 1000 656"><g transform="matrix(1,0,0,1,-0.6345679360617282,0.2655870445344135)"><svg viewBox="0 0 376 247" data-background-color="#ffffff" preserveAspectRatio="xMidYMid meet" height="656" width="1000" xmlns="http://www.w3.org/2000/svg" xmlns:xlink="http://www.w3.org/1999/xlink"><g id="tight-bounds" transform="matrix(1,0,0,1,0.23859754395920163,-0.09999999999999432)"><svg viewBox="0 0 375.5228049120816 247.2" height="247.2" width="375.5228049120816"><g><svg viewBox="0 0 397.4975999999999 261.665617732604" height="247.2" width="375.5228049120816"><g><rect width="397.4975999999999" height="5.8503089993001955" x="0" y="126.89831655020082" fill="#3d3839" opacity="1" stroke-width="0" stroke="transparent" fill-opacity="1" class="rect-o-0" data-fill-palette-color="primary" rx="1%" id="o-0" data-palette-color="#3d3839"></rect></g><g transform="matrix(1,0,0,1,0.9887999999999693,148.06357057384707)"><svg viewBox="0 0 395.52 113.6020471587569" height="113.6020471587569" width="395.52"><g><svg viewBox="0 0 395.52 113.6020471587569" height="113.6020471587569" width="395.52"><g><svg viewBox="0 0 395.52 64.87294356201419" height="64.87294356201419" width="395.52"><g transform="matrix(1,0,0,1,0,0)"><svg width="395.52" viewBox="4.130000114440918 -35.54999923706055 215.38999938964844 35.54999923706055" height="64.87294356201419" data-palette-color="#3d3839"><g class="undefined-text-0" data-fill-palette-color="primary" id="text-0"><path d="M31.45-35.55L31.45 0 26.73 0 26.73-16.43 8.81-16.43 8.81 0 4.13 0 4.13-35.55 8.81-35.55 8.81-20.26 26.73-20.26 26.73-35.55 31.45-35.55ZM62.79 0L59.4-9.28 44.5-9.28 41.16 0 36.33 0 49.9-35.55 54-35.55 67.6 0 62.79 0ZM51.95-29.76L45.92-13.13 58.01-13.13 51.95-29.76ZM77.41-35.55L77.41 0 72.72 0 72.72-35.55 77.41-35.55ZM106.73 0L99.02-14.38 90.67-14.38 90.67 0 85.95 0 85.95-35.55 97.72-35.55Q103.73-35.55 106.96-32.81 110.2-30.08 110.2-24.85L110.2-24.85Q110.2-21.53 108.4-19.07 106.61-16.6 103.41-15.38L103.41-15.38 111.76-0.29 111.76 0 106.73 0ZM90.67-31.69L90.67-18.21 97.87-18.21Q101.36-18.21 103.42-20.02 105.49-21.83 105.49-24.85L105.49-24.85Q105.49-28.15 103.52-29.91 101.56-31.67 97.84-31.69L97.84-31.69 90.67-31.69Z" fill="#3d3839" data-fill-palette-color="primary"></path><path d="M143.21-35.55L143.21 0 138.49 0 138.49-16.43 120.57-16.43 120.57 0 115.89 0 115.89-35.55 120.57-35.55 120.57-20.26 138.49-20.26 138.49-35.55 143.21-35.55ZM156.56-35.55L156.56 0 151.87 0 151.87-35.55 156.56-35.55ZM166.78-35.55L176.89-6.23 187.05-35.55 192.17-35.55 178.99 0 174.84 0 161.68-35.55 166.78-35.55ZM217.03-20.26L217.03-16.43 201.62-16.43 201.62-3.83 219.52-3.83 219.52 0 196.93 0 196.93-35.55 219.27-35.55 219.27-31.69 201.62-31.69 201.62-20.26 217.03-20.26Z" fill="#ffc604" data-fill-palette-color="secondary"></path></g></svg></g></svg></g><g transform="matrix(1,0,0,1,0,80.18788858636024)"><svg viewBox="0 0 395.52 33.41415857239666" height="33.41415857239666" width="395.52"><g transform="matrix(1,0,0,1,0,0)"><svg width="395.52" viewBox="3.2200000286102295 -36.040000915527344 432.2799987792969 36.53000259399414" height="33.41415857239666" data-palette-color="#ffc604"><path d="M26.25-21.51L26.25-13.92Q26.25-7.03 23.23-3.27 20.21 0.49 14.77 0.49L14.77 0.49Q9.38 0.49 6.31-3.27 3.25-7.03 3.22-13.84L3.22-13.84 3.22-21.58Q3.22-28.44 6.27-32.24 9.33-36.04 14.72-36.04L14.72-36.04Q20.19-36.04 23.22-32.23 26.25-28.42 26.25-21.51L26.25-21.51ZM23.44-13.92L23.44-21.63Q23.44-27.47 21.19-30.4 18.95-33.33 14.72-33.33L14.72-33.33Q10.64-33.33 8.35-30.46 6.05-27.59 6.01-21.88L6.01-21.88 6.01-13.92Q6.01-8.06 8.33-5.11 10.64-2.17 14.77-2.17L14.77-2.17Q19.02-2.17 21.23-5.1 23.44-8.03 23.44-13.92L23.44-13.92ZM56.05-35.55L56.05 0 53.27 0 36.5-30.27 36.5 0 33.69 0 33.69-35.55 36.5-35.55 53.29-5.22 53.29-35.55 56.05-35.55ZM81.07-19.6L81.07-17.02 67.28-17.02 67.28-2.59 83.15-2.59 83.15 0 64.5 0 64.5-35.55 83.03-35.55 83.03-32.91 67.28-32.91 67.28-19.6 81.07-19.6ZM117.28-8.74L117.28-8.74Q117.28-11.72 115.58-13.43 113.88-15.14 109.24-16.7 104.6-18.26 102.43-20.19L102.43-20.19Q99.57-22.71 99.57-26.83L99.57-26.83Q99.57-30.91 102.38-33.47 105.19-36.04 109.63-36.04L109.63-36.04Q114.17-36.04 117.06-33.06 119.94-30.08 119.94-25.39L119.94-25.39 117.13-25.39Q117.13-28.98 115.11-31.19 113.1-33.4 109.63-33.4L109.63-33.4Q106.26-33.4 104.32-31.58 102.38-29.76 102.38-26.88L102.38-26.88Q102.38-24.19 104.21-22.49 106.04-20.78 110.05-19.45 114.05-18.12 116.1-16.69 118.15-15.26 119.13-13.33 120.11-11.4 120.11-8.79L120.11-8.79Q120.11-4.61 117.29-2.06 114.47 0.49 109.83 0.49L109.83 0.49Q106.7 0.49 104.13-0.79 101.55-2.08 100.1-4.48 98.65-6.88 98.65-10.16L98.65-10.16 101.43-10.16Q101.43-6.4 103.7-4.25 105.97-2.1 109.83-2.1L109.83-2.1Q113.2-2.1 115.24-3.91 117.28-5.71 117.28-8.74ZM146.76-35.55L146.76-32.91 136.66-32.91 136.66 0 133.85 0 133.85-32.91 123.77-32.91 123.77-35.55 146.76-35.55ZM173.84-21.51L173.84-13.92Q173.84-7.03 170.82-3.27 167.81 0.49 162.36 0.49L162.36 0.49Q156.97 0.49 153.9-3.27 150.84-7.03 150.82-13.84L150.82-13.84 150.82-21.58Q150.82-28.44 153.87-32.24 156.92-36.04 162.31-36.04L162.31-36.04Q167.78-36.04 170.81-32.23 173.84-28.42 173.84-21.51L173.84-21.51ZM171.03-13.92L171.03-21.63Q171.03-27.47 168.78-30.4 166.54-33.33 162.31-33.33L162.31-33.33Q158.24-33.33 155.94-30.46 153.65-27.59 153.6-21.88L153.6-21.88 153.6-13.92Q153.6-8.06 155.92-5.11 158.24-2.17 162.36-2.17L162.36-2.17Q166.61-2.17 168.82-5.1 171.03-8.03 171.03-13.92L171.03-13.92ZM191.56-14.45L184.06-14.45 184.06 0 181.28 0 181.28-35.55 191.61-35.55Q196.32-35.55 199.03-32.71 201.74-29.88 201.74-24.93L201.74-24.93Q201.74-19.87 199.12-17.16 196.49-14.45 191.56-14.45L191.56-14.45ZM184.06-32.91L184.06-17.07 191.61-17.07Q195.12-17.07 197.04-19.1 198.96-21.14 198.96-24.88 198.96-28.61 197.02-30.76 195.08-32.91 191.63-32.91L191.63-32.91 184.06-32.91ZM241.75-35.55L241.75 0 238.94 0 238.94-17.02 222.24-17.02 222.24 0 219.46 0 219.46-35.55 222.24-35.55 222.24-19.6 238.94-19.6 238.94-35.55 241.75-35.55ZM269.87 0L266.8-9.94 253.47-9.94 250.44 0 247.53 0 258.86-35.55 261.45-35.55 272.78 0 269.87 0ZM260.13-31.62L254.27-12.55 265.99-12.55 260.13-31.62ZM281.34-35.55L281.34 0 278.56 0 278.56-35.55 281.34-35.55ZM308.44 0L301.31-14.79 293.01-14.79 293.01 0 290.2 0 290.2-35.55 299.95-35.55Q304.8-35.55 307.48-32.78 310.15-30 310.15-25.07L310.15-25.07Q310.15-21.63 308.49-19.03 306.83-16.43 304.02-15.43L304.02-15.43 311.42-0.32 311.42 0 308.44 0ZM293.01-32.91L293.01-17.38 300.43-17.38Q303.58-17.38 305.46-19.54 307.34-21.7 307.34-25.07L307.34-25.07Q307.34-28.81 305.39-30.86 303.44-32.91 299.92-32.91L299.92-32.91 293.01-32.91ZM345.67-8.74L345.67-8.74Q345.67-11.72 343.97-13.43 342.27-15.14 337.64-16.7 333-18.26 330.82-20.19L330.82-20.19Q327.97-22.71 327.97-26.83L327.97-26.83Q327.97-30.91 330.78-33.47 333.58-36.04 338.03-36.04L338.03-36.04Q342.57-36.04 345.45-33.06 348.33-30.08 348.33-25.39L348.33-25.39 345.52-25.39Q345.52-28.98 343.51-31.19 341.49-33.4 338.03-33.4L338.03-33.4Q334.66-33.4 332.72-31.58 330.78-29.76 330.78-26.88L330.78-26.88Q330.78-24.19 332.61-22.49 334.44-20.78 338.44-19.45 342.45-18.12 344.5-16.69 346.55-15.26 347.52-13.33 348.5-11.4 348.5-8.79L348.5-8.79Q348.5-4.61 345.68-2.06 342.86 0.49 338.22 0.49L338.22 0.49Q335.1 0.49 332.52-0.79 329.95-2.08 328.49-4.48 327.04-6.88 327.04-10.16L327.04-10.16 329.82-10.16Q329.82-6.4 332.09-4.25 334.36-2.1 338.22-2.1L338.22-2.1Q341.59-2.1 343.63-3.91 345.67-5.71 345.67-8.74ZM377.11-35.55L377.11 0 374.3 0 374.3-17.02 357.6-17.02 357.6 0 354.82 0 354.82-35.55 357.6-35.55 357.6-19.6 374.3-19.6 374.3-35.55 377.11-35.55ZM407.6-21.51L407.6-13.92Q407.6-7.03 404.59-3.27 401.57 0.49 396.13 0.49L396.13 0.49Q390.73 0.49 387.67-3.27 384.6-7.03 384.58-13.84L384.58-13.84 384.58-21.58Q384.58-28.44 387.63-32.24 390.68-36.04 396.08-36.04L396.08-36.04Q401.55-36.04 404.57-32.23 407.6-28.42 407.6-21.51L407.6-21.51ZM404.79-13.92L404.79-21.63Q404.79-27.47 402.55-30.4 400.3-33.33 396.08-33.33L396.08-33.33Q392-33.33 389.71-30.46 387.41-27.59 387.36-21.88L387.36-21.88 387.36-13.92Q387.36-8.06 389.68-5.11 392-2.17 396.13-2.17L396.13-2.17Q400.38-2.17 402.58-5.1 404.79-8.03 404.79-13.92L404.79-13.92ZM425.32-14.45L417.83-14.45 417.83 0 415.05 0 415.05-35.55 425.37-35.55Q430.08-35.55 432.79-32.71 435.5-29.88 435.5-24.93L435.5-24.93Q435.5-19.87 432.88-17.16 430.26-14.45 425.32-14.45L425.32-14.45ZM417.83-32.91L417.83-17.07 425.37-17.07Q428.89-17.07 430.8-19.1 432.72-21.14 432.72-24.88 432.72-28.61 430.78-30.76 428.84-32.91 425.4-32.91L425.4-32.91 417.83-32.91Z" opacity="1" transform="matrix(1,0,0,1,0,0)" fill="#ffc604" class="undefined-text-1" data-fill-palette-color="secondary" id="text-1"></path></svg></g></svg></g></svg></g></svg></g><g transform="matrix(1,0,0,1,76.53311999999997,0)"><svg viewBox="0 0 244.43135999999998 111.58337152585476" height="111.58337152585476" width="244.43135999999998"><g><svg xmlns="http://www.w3.org/2000/svg" xmlns:xlink="http://www.w3.org/1999/xlink" version="1.1" viewBox="2.000001907348633 27 92.0040054321289 42" x="0" y="0" height="111.58337152585476" width="244.43135999999998" class="icon-icon-0" data-fill-palette-color="accent" id="icon-0"><path d="M92 69c-1.1 0-2-0.9-2-2v-24.124c0-6.548-5.328-11.876-11.876-11.876h-60.252c-6.544 0-11.872 5.328-11.872 11.876v24.124c0 1.1-0.896 2-2 2s-2-0.9-2-2v-24.124c0-8.752 7.12-15.876 15.876-15.876h60.252c8.752 0 15.876 7.12 15.876 15.876v24.124c-0.004 1.1-0.9 2-2.004 2z" fill="#ffc604" data-fill-palette-color="accent"></path><path d="M84 69c-1.1 0-2-0.9-2-2v-21.668c0-1.288-1.048-2.332-2.328-2.332h-63.336c-1.288 0-2.332 1.048-2.332 2.332v21.668c0 1.1-0.896 2-2 2s-2-0.9-2-2v-21.668c0-3.492 2.84-6.332 6.332-6.332h63.332c3.492 0 6.328 2.84 6.328 6.332v21.668c0.004 1.1-0.892 2-1.996 2z" fill="#ffc604" data-fill-palette-color="accent"></path><path d="M20 69c-1.104 0-2-0.9-2-2v-24c0-1.104 0.896-2 2-2s2 0.896 2 2v24c0 1.1-0.896 2-2 2z" fill="#ffc604" data-fill-palette-color="accent"></path><path d="M28 69c-1.104 0-2-0.9-2-2v-24c0-1.104 0.896-2 2-2s2 0.896 2 2v24c0 1.1-0.896 2-2 2z" fill="#ffc604" data-fill-palette-color="accent"></path><path d="M36 69c-1.104 0-2-0.9-2-2v-24c0-1.104 0.896-2 2-2s2 0.896 2 2v24c0 1.1-0.896 2-2 2z" fill="#ffc604" data-fill-palette-color="accent"></path><path d="M44 69c-1.104 0-2-0.9-2-2v-24c0-1.104 0.896-2 2-2s2 0.896 2 2v24c0 1.1-0.896 2-2 2z" fill="#ffc604" data-fill-palette-color="accent"></path><path d="M52 69c-1.1 0-2-0.9-2-2v-24c0-1.104 0.9-2 2-2 1.104 0 2 0.896 2 2v24c0 1.1-0.896 2-2 2z" fill="#ffc604" data-fill-palette-color="accent"></path><path d="M60 69c-1.1 0-2-0.9-2-2v-24c0-1.104 0.9-2 2-2 1.104 0 2 0.896 2 2v24c0 1.1-0.896 2-2 2z" fill="#ffc604" data-fill-palette-color="accent"></path><path d="M68 69c-1.1 0-2-0.9-2-2v-24c0-1.104 0.9-2 2-2 1.104 0 2 0.896 2 2v24c0 1.1-0.896 2-2 2z" fill="#ffc604" data-fill-palette-color="accent"></path><path d="M76 69c-1.1 0-2-0.9-2-2v-24c0-1.104 0.9-2 2-2 1.104 0 2 0.896 2 2v24c0 1.1-0.896 2-2 2z" fill="#ffc604" data-fill-palette-color="accent"></path></svg></g></svg></g><g></g></svg></g><defs></defs></svg><rect width="375.5228049120816" height="247.2" fill="none" stroke="none" visibility="hidden"></rect></g></svg></g></svg>